<?xml version="1.0" standalone="no"?>
<!DOCTYPE svg PUBLIC "-//W3C//DTD SVG 20010904//EN"
 "http://www.w3.org/TR/2001/REC-SVG-20010904/DTD/svg10.dtd">
<svg version="1.0" xmlns="http://www.w3.org/2000/svg"
 width="260.000000pt" height="260.000000pt" viewBox="0 0 260.000000 260.000000"
 preserveAspectRatio="xMidYMid meet">
<metadata>
Created by potrace 1.11, written by Peter Selinger 2001-2013
</metadata>
<g transform="translate(0.000000,260.000000) scale(0.100000,-0.100000)"
fill="#000000" stroke="none">
<path d="M0 1300 l0 -1300 1300 0 1300 0 0 1300 0 1300 -1300 0 -1300 0 0
-1300z m1618 927 c89 -31 166 -76 235 -138 l52 -46 -39 -47 -38 -47 -59 55
c-202 187 -540 180 -753 -15 -161 -147 -245 -381 -246 -679 0 -421 169 -724
454 -816 66 -21 100 -26 186 -26 168 0 292 51 412 170 32 30 59 54 60 51 2 -2
19 -21 38 -42 l34 -37 -54 -56 c-94 -95 -207 -162 -322 -189 -83 -19 -264 -19
-348 1 -88 20 -213 83 -282 141 -259 217 -373 647 -287 1078 72 357 289 594
605 660 105 22 261 14 352 -18z"/>
</g>
</svg>
