<?xml version="1.0" standalone="no"?>
<!DOCTYPE svg PUBLIC "-//W3C//DTD SVG 20010904//EN"
 "http://www.w3.org/TR/2001/REC-SVG-20010904/DTD/svg10.dtd">
<svg version="1.0" xmlns="http://www.w3.org/2000/svg"
 width="1800.000000pt" height="1800.000000pt" viewBox="0 0 1800.000000 1800.000000"
 preserveAspectRatio="xMidYMid meet">
<metadata>
Created by potrace 1.11, written by Peter Selinger 2001-2013
</metadata>
<g transform="translate(0.000000,1800.000000) scale(0.100000,-0.100000)"
fill="#000000" stroke="none">
<path d="M8670 15739 c-1322 -44 -2397 -338 -3170 -867 -245 -167 -542 -440
-711 -652 -461 -578 -705 -1261 -759 -2120 -34 -557 33 -1073 221 -1705 244
-818 723 -1787 1340 -2712 914 -1370 2062 -2551 2863 -2943 438 -214 736 -214
1164 1 974 487 2419 2098 3369 3759 575 1004 933 1957 1042 2775 70 524 35
1133 -95 1648 -153 610 -445 1131 -868 1552 -648 644 -1588 1044 -2816 1199
-270 34 -535 54 -870 66 -312 11 -376 10 -710 -1z m-1547 -896 c-366 -360
-591 -882 -692 -1605 -41 -290 -54 -513 -55 -918 0 -387 8 -564 45 -955 178
-1909 849 -4263 1567 -5505 l26 -45 -74 65 c-125 108 -463 445 -619 615 -559
610 -1088 1320 -1523 2045 -608 1011 -990 1968 -1108 2778 -83 574 -17 1247
175 1769 55 148 184 404 270 533 415 623 1082 1049 2020 1288 22 5 42 10 43
11 2 1 -32 -34 -75 -76z"/>
<path d="M8308 4200 c-117 -35 -218 -173 -218 -296 0 -64 167 -1092 186 -1141
21 -57 91 -133 150 -163 l49 -25 545 0 545 0 43 23 c59 31 120 95 144 150 14
30 46 201 94 496 116 721 108 655 90 726 -26 103 -87 174 -186 219 -44 20 -62
21 -730 20 -377 0 -697 -4 -712 -9z"/>
</g>
</svg>
