<svg id="Layer_2" data-name="Layer 2" xmlns="http://www.w3.org/2000/svg" viewBox="0 0 354.18 354.18"><defs><style>.cls-1{fill:none;stroke:#fff;stroke-miterlimit:10;stroke-width:8.05px;}.cls-2{fill:#fff;}</style></defs><title>Artboard 32</title><path class="cls-1" d="M269.69,121.73c0,53.69-69.57,135.81-92.6,135.81-24.08,0-92.6-82.12-92.6-135.81S126,50.22,177.09,50.22,269.69,68,269.69,121.73Z"/><path class="cls-2" d="M269.69,121.73c0,53.69-69.57,135.81-92.6,135.81-24.08,0-52.47-92.15-52.47-145.85s24.69-61.47,52.47-61.47C228.23,50.22,269.69,68,269.69,121.73Z"/><path class="cls-2" d="M185.22,304H167.94a6.17,6.17,0,0,1-6.09-5.19l-3.16-19.56a6.18,6.18,0,0,1,6.1-7.16h23.58a6.17,6.17,0,0,1,6.09,7.16l-3.15,19.56A6.17,6.17,0,0,1,185.22,304Z"/></svg>