<?xml version="1.0" encoding="UTF-8"?>
<svg width="119px" height="119px" viewBox="0 0 119 119" version="1.1" xmlns="http://www.w3.org/2000/svg" xmlns:xlink="http://www.w3.org/1999/xlink">
    <!-- Generator: Sketch 54 (76480) - https://sketchapp.com -->
    <title>Group 8</title>
    <desc>Created with Sketch.</desc>
    <defs>
        <circle id="path-1" cx="55.5" cy="55.5" r="55.5"></circle>
        <filter x="-6.3%" y="-4.5%" width="112.6%" height="112.6%" filterUnits="objectBoundingBox" id="filter-2">
            <feOffset dx="0" dy="2" in="SourceAlpha" result="shadowOffsetOuter1"></feOffset>
            <feGaussianBlur stdDeviation="2" in="shadowOffsetOuter1" result="shadowBlurOuter1"></feGaussianBlur>
            <feColorMatrix values="0 0 0 0 0   0 0 0 0 0   0 0 0 0 0  0 0 0 0.5 0" type="matrix" in="shadowBlurOuter1"></feColorMatrix>
        </filter>
        <path d="M30.2083333,22.9166667 L27.0833333,22.9166667 L27.0833333,12.5 L35.4166667,12.5 C36.6666667,12.5 37.5,11.6666667 37.5,10.4166667 C37.5,9.16666667 36.6666667,8.33333333 35.4166667,8.33333333 L27.0833333,8.33333333 L27.0833333,2.08333333 C27.0833333,0.833333333 26.25,0 25,0 C23.75,0 22.9166667,0.833333333 22.9166667,2.08333333 L22.9166667,8.33333333 L19.7916667,8.33333333 C14.5833333,8.33333333 10.4166667,12.5 10.4166667,17.7083333 C10.4166667,22.9166667 14.5833333,27.0833333 19.7916667,27.0833333 L22.9166667,27.0833333 L22.9166667,37.5 L12.5,37.5 C11.25,37.5 10.4166667,38.3333333 10.4166667,39.5833333 C10.4166667,40.8333333 11.25,41.6666667 12.5,41.6666667 L22.9166667,41.6666667 L22.9166667,47.9166667 C22.9166667,49.1666667 23.75,50 25,50 C26.25,50 27.0833333,49.1666667 27.0833333,47.9166667 L27.0833333,41.6666667 L30.2083333,41.6666667 C35.4166667,41.6666667 39.5833333,37.5 39.5833333,32.2916667 C39.5833333,27.0833333 35.4166667,22.9166667 30.2083333,22.9166667 Z M19.7916667,22.9166667 C16.875,22.9166667 14.5833333,20.625 14.5833333,17.7083333 C14.5833333,14.7916667 16.875,12.5 19.7916667,12.5 L22.9166667,12.5 L22.9166667,22.9166667 L19.7916667,22.9166667 Z M30.2083333,37.5 L27.0833333,37.5 L27.0833333,27.0833333 L30.2083333,27.0833333 C33.125,27.0833333 35.4166667,29.375 35.4166667,32.2916667 C35.4166667,35.2083333 33.125,37.5 30.2083333,37.5 Z" id="path-3"></path>
    </defs>
    <g id="Home" stroke="none" stroke-width="1" fill="none" fill-rule="evenodd">
        <g id="Desktop-HD" transform="translate(-132.000000, -1130.000000)">
            <g id="Group-8" transform="translate(136.000000, 1132.000000)">
                <g id="Oval-Copy">
                    <use fill="black" fill-opacity="1" filter="url(#filter-2)" xlink:href="#path-1"></use>
                    <use fill="#0D1C54" fill-rule="evenodd" xlink:href="#path-1"></use>
                </g>
                <g id="icon-/-dollar-sign" transform="translate(31.000000, 31.000000)">
                    <mask id="mask-4" fill="white">
                        <use xlink:href="#path-3"></use>
                    </mask>
                    <use id="Shape" fill="#000000" fill-rule="nonzero" xlink:href="#path-3"></use>
                    <g id="color-/-white" mask="url(#mask-4)" fill="#FFFFFF" fill-rule="evenodd">
                        <rect id="Shape" x="0" y="0" width="50" height="50"></rect>
                    </g>
                </g>
            </g>
        </g>
    </g>
</svg>