<?xml version="1.0" encoding="UTF-8"?>
<svg width="1126px" height="1115px" viewBox="0 0 1126 1115" version="1.1" xmlns="http://www.w3.org/2000/svg" xmlns:xlink="http://www.w3.org/1999/xlink">
    <!-- Generator: Sketch 51.2 (57519) - http://www.bohemiancoding.com/sketch -->
    <title>Artboard 9</title>
    <desc>Created with Sketch.</desc>
    <defs>
        <linearGradient x1="95.1780214%" y1="41.7995561%" x2="8.10783472%" y2="36.5710494%" id="linearGradient-1">
            <stop stop-color="#96A5E9" offset="0%"></stop>
            <stop stop-color="#3B31CB" offset="100%"></stop>
        </linearGradient>
        <path d="M10.4592865,105.298442 C10.4592865,105.298442 10.4592865,105.298442 10.4592865,105.298442 L10.4592865,105.298442 C1.16871282,112.268391 -0.712524654,125.45015 6.25742503,134.740724 C9.91508391,139.616189 15.508064,142.664949 21.5876767,143.097317 C27.5314348,143.51999 33.7197226,143.731343 40.1525424,143.731343 C62.8474576,143.731343 87.8083382,115.371251 97.4564617,86.7611283 C107.104585,58.1510057 103.275671,25.2387402 91.3462922,15.029785 C85.4875287,10.0159568 75.733803,5.68252708 62.0851153,2.02949574 L62.085115,2.02949678 C52.364144,-0.572292639 42.2238921,4.45385092 38.4079166,13.7653983 C33.652122,25.3702441 32.8707519,33.6723033 36.0638063,38.6715761 C42.7558967,49.149188 65.450812,34.3730686 72.1429023,52.1044119 C78.8349927,69.8357552 62.868175,106.505499 45.9564617,111.477546 C29.0447483,116.449594 18.9231222,98.9487253 10.4592865,105.298442 Z" id="path-2"></path>
        <linearGradient x1="50%" y1="0%" x2="50%" y2="100%" id="linearGradient-4">
            <stop stop-color="#3623EF" offset="0%"></stop>
            <stop stop-color="#1D159C" offset="100%"></stop>
        </linearGradient>
    </defs>
    <g id="Artboard-9" stroke="none" stroke-width="1" fill="none" fill-rule="evenodd">
        <path d="M435,958 L474,958 L474,1035.14286 C465.746032,1043.71429 459.246032,1048 454.5,1048 C449.753968,1048 443.253968,1043.71429 435,1035.14286 L435,958 Z" id="Rectangle-7" fill="#D8D8D8" fill-rule="nonzero"></path>
        <path d="M544,950 L583.465922,950 L583.465922,1027.51506 C574.904532,1037.8504 568.326878,1043.01807 563.732961,1043.01807 C559.139044,1043.01807 552.561391,1037.8504 544,1027.51506 L544,950 Z" id="Rectangle-7" fill="#D8D8D8" fill-rule="nonzero"></path>
        <path d="M563.737713,150.580048 L552.597677,246.175895 C532.712449,314.235544 514.713665,349.098632 498.601326,350.765159 C485.337288,352.137082 435.351409,370.225492 385.733519,338.939204 C375.078641,332.22083 360.632218,315.92156 366.258289,293.674341 C371.884361,271.427123 396.581797,266.933544 409.192318,246.175895 C428.302038,214.720188 428.302038,185.5 470.27372,166.443375 C512.245401,147.386751 490.980411,100.01868 510.994654,69.796776 C536.967437,30.5773586 578.594084,-3.67688559 643.770083,11.8031236 C756.457219,38.5675448 745.01838,277.893261 734.959793,314.063919 C732.739612,322.047688 729.937822,358.648643 713.714088,362.591115 C696.673428,366.732105 665.728281,338.033899 643.770083,338.939204 C630.251236,339.496567 603.573779,321.010016 563.737713,283.479552 L563.737713,150.580048 Z" id="Path-4" fill="#0C064E" fill-rule="nonzero"></path>
        <path d="M546.600984,258 C550.980879,234.164142 553.704934,215.488928 554.773152,201.974359 C555.841369,188.45979 555.841369,172.671566 554.773152,154.609687 C546.547189,154.676086 541.682804,153.593465 540.179996,151.361823 C528.823276,134.497312 541.542411,120.530761 567.031403,125.649573 C574.619844,104.809117 606.14106,89.1111111 632.992467,89.1111111 C650.893404,89.1111111 665.583848,82.0740741 677.063797,68 C691.645401,126.891624 691.645401,171.549744 677.063797,201.974359 C666.556725,223.897436 655.465926,227.957265 640.872771,227.957265 C631.144,227.957265 611.102733,222.634378 580.748969,211.988604 L580.748969,258 L546.600984,258 Z" id="Path-5" fill="#A0C2D9" fill-rule="nonzero"></path>
        <path d="M824,249.591346 C821.064898,216.633013 817.151428,194.268429 812.259591,182.497596 C810.490907,178.241753 809.135037,174.640995 806.678931,171.211142 C802.729077,165.695332 795.933755,160.621524 780,153.975962 C778.958819,153.541711 773.390969,151.549724 763.296451,148 C747.355206,152.577739 738.82572,156.561714 737.707994,159.951923 C731.935828,177.459658 742.24901,187.315227 747.100322,189.560096 C767.059017,198.795673 777.193765,184.093768 785.256651,204.092548 C790.631908,217.425068 792.392969,236.394219 790.539835,261 L824,249.591346 Z" id="Path-7" fill="#A0C2D9" fill-rule="nonzero"></path>
        <path d="M624.643602,252.850611 C712.209113,356.661867 762.344277,393.530263 775.049095,363.455798 C787.753912,333.381332 779.251458,294.610636 749.541731,247.14371 L851.864376,211 C882.355937,272.779474 886.167383,330.301417 863.298711,383.565831 C828.995704,463.462453 793.813133,475.963285 708.202209,435.743217 C651.12826,408.929838 616.727524,369.796799 605,318.3441 L624.643602,252.850611 Z" id="Path-6" fill="#96A5E9" fill-rule="nonzero"></path>
        <path d="M378.659508,559.313923 C439.498971,399.422104 498.803449,280.310619 532.598277,233 C555.08316,237.060026 585.931794,243.585629 625.144181,252.576808 C635.230135,389.111767 649.080856,491.357472 666.696344,559.313923 C684.311832,627.270375 734.552687,774.031477 817.418909,999.597231 C693.367973,999.972338 606.031348,993.379103 555.409036,979.817525 C537.528866,975.027477 550.346184,801.800177 532.598277,801.800177 C512.707545,801.800177 529.38514,973.80098 509.36546,979.817525 C460.229674,994.584377 373.441188,1001.17761 249,999.597231 C294.880029,812.669572 338.099865,665.90847 378.659508,559.313923 Z" id="Path-3" fill="url(#linearGradient-1)" fill-rule="nonzero"></path>
        <g id="Group" transform="translate(690.000000, 78.000000)">
            <mask id="mask-3" fill="white">
                <use xlink:href="#path-2"></use>
            </mask>
            <use id="Path-8" fill="#4C35A4" fill-rule="nonzero" xlink:href="#path-2"></use>
            <path d="M-5.81920904,123.313433 C25.5222476,131.333669 47.7322287,129.453072 60.8107345,117.671642 C68.1731962,111.039361 83.0431584,96.9109704 89.6158192,78.4477612 C93.0177265,68.8914905 97.0911728,48.4735801 101.836158,17.1940299 L117.257062,48.6268657 L73.9039548,153.402985 L22.4039548,150.716418 L-5.81920904,123.313433 Z" id="Path-9" fill="#44139D" fill-rule="nonzero" mask="url(#mask-3)"></path>
        </g>
        <path d="M542.460577,1024 C551.797642,1030.66975 559.437059,1034.00463 565.378828,1034.00463 C571.320597,1034.00463 577.368469,1030.66975 583.522444,1024 C619.268952,1043.54079 638.049186,1056.20592 639.863145,1061.99537 C642.584084,1070.67956 603.955947,1072 593.071715,1072 C560.540033,1072 542.460577,1061.99537 542.460577,1061.99537 C535.179808,1061.99537 535.179808,1049.33025 542.460577,1024 Z" id="Path-10" fill="url(#linearGradient-4)" fill-rule="nonzero"></path>
        <path d="M436.476406,1025 C445.736548,1031.57225 453.313029,1034.85837 459.205847,1034.85837 C465.098666,1034.85837 471.096713,1031.57225 477.199989,1025 C493.731289,1052.69675 502.975126,1070.84944 504.931501,1079.45807 C509.797546,1100.87012 497.261639,1111.79254 483.149119,1104.98529 C455.253144,1089.91549 437.890376,1077.27429 431.060815,1067.06167 C425.624542,1058.93251 427.429739,1044.91195 436.476406,1025 Z" id="Path-10" fill="#241BA7" fill-rule="nonzero"></path>
    </g>
</svg>