<svg width="1126" height="1115" viewBox="0 0 1126 1115" fill="none" xmlns="http://www.w3.org/2000/svg">
<g id="Artboard 9">
<path id="Rectangle 7" d="M435 958H474V1035.14C474 1035.14 461.619 1048 454.5 1048C447.381 1048 435 1035.14 435 1035.14V958Z" fill="#D8D8D8"/>
<path id="Rectangle 7_2" d="M555 950H594.466V1027.52C594.466 1027.52 581.624 1043.02 574.733 1043.02C567.842 1043.02 555 1027.52 555 1027.52V950Z" fill="#D8D8D8"/>
<path id="Path 4" d="M563.738 150.58L552.598 246.176C552.598 246.176 522.77 348.265 498.601 350.765C485.337 352.137 435.351 370.225 385.734 338.939C375.079 332.221 360.632 315.922 366.258 293.674C371.884 271.427 396.582 266.934 409.192 246.176C428.302 214.72 428.302 185.5 470.274 166.443C512.245 147.387 490.98 100.019 510.995 69.7968C536.967 30.5774 578.594 -3.67689 643.77 11.8031C756.457 38.5675 745.018 277.893 734.96 314.064C732.74 322.048 729.938 358.649 713.714 362.591C696.673 366.732 665.728 338.034 643.77 338.939C623.492 339.775 563.738 283.48 563.738 283.48V150.58Z" fill="#0C064E"/>
<path id="Path 5" d="M546.601 258C546.601 258 553.171 222.246 554.773 201.974C556.375 181.703 554.773 154.61 554.773 154.61C554.773 154.61 542.434 154.709 540.18 151.362C528.823 134.497 541.542 120.531 567.031 125.65C574.62 104.809 606.141 89.1111 632.992 89.1111C659.844 89.1111 677.064 68 677.064 68C677.064 68 698.936 156.337 677.064 201.974C666.557 223.897 655.466 227.957 640.873 227.957C626.28 227.957 580.749 211.989 580.749 211.989V258H546.601Z" fill="#A0C2D9"/>
<path id="Path 7" d="M824 249.591C824 249.591 819.597 200.154 812.26 182.498C810.491 178.242 809.135 174.641 806.679 171.211C802.729 165.695 795.934 160.622 780 153.976C778.438 153.325 763.296 148 763.296 148C763.296 148 739.385 154.867 737.708 159.952C731.936 177.46 742.249 187.315 747.1 189.56C767.059 198.796 777.194 184.094 785.257 204.093C793.32 224.091 790.54 261 790.54 261L824 249.591Z" fill="#A0C2D9"/>
<path id="Path 6" d="M624.644 252.851C624.644 252.851 755.992 408.567 775.049 363.456C794.106 318.344 749.542 247.144 749.542 247.144L851.864 211C851.864 211 897.602 303.669 863.299 383.566C828.996 463.462 793.813 475.963 708.202 435.743C622.591 395.523 605 318.344 605 318.344L624.644 252.851Z" fill="#96A5E9"/>
<path id="Path 3" d="M378.66 559.314C439.499 399.422 498.803 280.311 532.598 233C566.326 239.09 625.144 252.577 625.144 252.577C625.144 252.577 640.273 457.379 666.696 559.314C693.12 661.249 817.419 999.597 817.419 999.597C817.419 999.597 631.342 1000.16 555.409 979.818C537.529 975.027 550.346 801.8 532.598 801.8C512.708 801.8 529.385 973.801 509.365 979.818C435.662 1001.97 249 999.597 249 999.597C249 999.597 317.82 719.206 378.66 559.314Z" fill="url(#paint0_linear)"/>
<g id="Group">
<path id="Path 8" d="M700.459 183.298C697.047 185.858 694.574 191.22 692.809 196.99C689.214 208.748 698.027 219.903 710.282 220.899C716.19 221.38 722.968 221.731 730.152 221.731C752.847 221.731 777.808 193.371 787.456 164.761C797.105 136.151 793.276 103.239 781.346 93.0298C774.525 87.1919 760.662 82.5839 750.042 79.7083C741.7 77.4495 733.033 81.4579 729.743 89.449C725.882 98.823 722.309 110.792 726.064 116.672C732.756 127.149 755.451 112.373 762.143 130.104C768.835 147.836 752.868 184.505 735.956 189.478C719.045 194.45 708.923 176.949 700.459 183.298Z" fill="#4C35A4"/>
<mask id="mask0" mask-type="alpha" maskUnits="userSpaceOnUse" x="691" y="79" width="102" height="143">
<path id="Path 8_2" d="M700.459 183.298C697.047 185.858 694.574 191.22 692.809 196.99C689.214 208.748 698.027 219.903 710.282 220.899C716.19 221.38 722.968 221.731 730.152 221.731C752.847 221.731 777.808 193.371 787.456 164.761C797.105 136.151 793.276 103.239 781.346 93.0298C774.525 87.1919 760.662 82.5839 750.042 79.7083C741.7 77.4495 733.033 81.4579 729.743 89.449C725.882 98.823 722.309 110.792 726.064 116.672C732.756 127.149 755.451 112.373 762.143 130.104C768.835 147.836 752.868 184.505 735.956 189.478C719.045 194.45 708.923 176.949 700.459 183.298Z" fill="white"/>
</mask>
<g mask="url(#mask0)">
<path id="Path 9" d="M684.181 201.313C684.181 201.313 731.193 213.344 750.811 195.671C758.173 189.039 773.043 174.911 779.616 156.448C784.719 142.113 791.836 95.1938 791.836 95.1938L807.257 126.627L763.904 231.403L712.404 228.716L684.181 201.313Z" fill="#44139D"/>
</g>
</g>
<path id="Path 10" d="M553.461 1024C562.798 1030.67 570.437 1034 576.379 1034C582.321 1034 588.368 1030.67 594.522 1024C630.269 1043.54 649.049 1056.21 650.863 1062C653.584 1070.68 614.956 1072 604.072 1072C571.54 1072 553.461 1062 553.461 1062C546.18 1062 546.18 1049.33 553.461 1024Z" fill="url(#paint1_linear)"/>
<path id="Path 10_2" d="M434.476 1025C443.737 1031.57 451.313 1034.86 457.206 1034.86C463.099 1034.86 469.097 1031.57 475.2 1025C491.731 1052.7 500.975 1070.85 502.932 1079.46C507.798 1100.87 495.262 1111.79 481.149 1104.99C453.253 1089.92 435.89 1077.27 429.061 1067.06C423.625 1058.93 425.43 1044.91 434.476 1025Z" fill="#241BA7"/>
</g>
<defs>
<linearGradient id="paint0_linear" x1="804.87" y1="219.691" x2="309.144" y2="197.626" gradientUnits="userSpaceOnUse">
<stop stop-color="#96A5E9"/>
<stop offset="1" stop-color="#3B31CB"/>
</linearGradient>
<linearGradient id="paint1_linear" x1="548" y1="1024" x2="548" y2="1072" gradientUnits="userSpaceOnUse">
<stop stop-color="#3623EF"/>
<stop offset="1" stop-color="#1D159C"/>
</linearGradient>
</defs>
</svg>
