<?xml version="1.0" encoding="UTF-8"?>
<svg width="119px" height="119px" viewBox="0 0 119 119" version="1.1" xmlns="http://www.w3.org/2000/svg" xmlns:xlink="http://www.w3.org/1999/xlink">
    <!-- Generator: Sketch 54 (76480) - https://sketchapp.com -->
    <title>Group 9</title>
    <desc>Created with Sketch.</desc>
    <defs>
        <circle id="path-1" cx="55.5" cy="55.5" r="55.5"></circle>
        <filter x="-6.3%" y="-4.5%" width="112.6%" height="112.6%" filterUnits="objectBoundingBox" id="filter-2">
            <feOffset dx="0" dy="2" in="SourceAlpha" result="shadowOffsetOuter1"></feOffset>
            <feGaussianBlur stdDeviation="2" in="shadowOffsetOuter1" result="shadowBlurOuter1"></feGaussianBlur>
            <feColorMatrix values="0 0 0 0 0   0 0 0 0 0   0 0 0 0 0  0 0 0 0.5 0" type="matrix" in="shadowBlurOuter1"></feColorMatrix>
        </filter>
        <path d="M44.2358364,8.08580858 L44.2358364,8.08580858 C41.8271219,5.61056106 38.6155026,4.16666667 35.2031572,4.16666667 L35.2031572,4.16666667 C31.7908117,4.16666667 28.3784662,5.61056106 25.9697517,8.08580858 C25.9697517,8.08580858 25.9697517,8.08580858 25.9697517,8.08580858 L25.1668469,8.91089109 L24.3639421,8.08580858 C19.345787,2.9290429 11.1160126,2.9290429 6.09785743,8.08580858 C3.48841677,10.5610561 2.08333333,14.0676568 2.08333333,17.5742574 C2.08333333,21.0808581 3.48841677,24.5874587 5.89713123,27.0627063 L23.5610373,45.2145215 C23.9624897,45.6270627 24.3639421,45.8333333 24.9661207,45.8333333 C25.5682993,45.8333333 25.9697517,45.6270627 26.3712041,45.2145215 L44.0351102,27.0627063 C46.4438246,24.5874587 47.8489081,21.0808581 47.8489081,17.5742574 C48.2503605,14.0676568 46.845277,10.5610561 44.2358364,8.08580858 Z M41.4256695,24.1749175 L25.1668469,40.8828383 L8.9080243,24.1749175 C7.10148846,22.3184818 6.29858364,20.049505 6.29858364,17.5742574 C6.29858364,15.0990099 7.30221466,12.830033 8.9080243,10.9735974 C10.5138339,9.11716172 12.9225484,8.29207921 15.1305367,8.29207921 C17.5392511,8.29207921 19.7472394,9.11716172 21.5537752,10.9735974 L23.7617635,13.2425743 C24.5646683,14.0676568 25.7690255,14.0676568 26.5719303,13.2425743 L28.5791924,10.9735974 C28.5791924,10.9735974 28.5791924,10.9735974 28.5791924,10.9735974 C30.3857282,9.32343234 32.5937165,8.29207921 35.2031572,8.29207921 C35.2031572,8.29207921 35.2031572,8.29207921 35.2031572,8.29207921 C37.6118716,8.29207921 39.8198599,9.32343234 41.6263957,10.9735974 L41.6263957,10.9735974 C43.2322054,12.830033 44.2358364,15.0990099 44.2358364,17.5742574 C44.2358364,20.049505 43.2322054,22.3184818 41.4256695,24.1749175 Z" id="path-3"></path>
    </defs>
    <g id="Home" stroke="none" stroke-width="1" fill="none" fill-rule="evenodd">
        <g id="Desktop-HD" transform="translate(-716.000000, -956.000000)">
            <g id="Group-9" transform="translate(720.000000, 958.000000)">
                <g id="Oval-Copy-2">
                    <use fill="black" fill-opacity="1" filter="url(#filter-2)" xlink:href="#path-1"></use>
                    <use fill="#0D1C54" fill-rule="evenodd" xlink:href="#path-1"></use>
                </g>
                <g id="icon-/-heart" transform="translate(31.000000, 31.000000)">
                    <mask id="mask-4" fill="white">
                        <use xlink:href="#path-3"></use>
                    </mask>
                    <use id="Mask" fill="#000000" fill-rule="nonzero" xlink:href="#path-3"></use>
                    <g id="color-/-white" mask="url(#mask-4)" fill="#FFFFFF" fill-rule="evenodd">
                        <rect id="Shape" x="0" y="0" width="50" height="50"></rect>
                    </g>
                </g>
            </g>
        </g>
    </g>
</svg>