<?xml version="1.0" encoding="UTF-8"?>
<svg width="119px" height="119px" viewBox="0 0 119 119" version="1.1" xmlns="http://www.w3.org/2000/svg" xmlns:xlink="http://www.w3.org/1999/xlink">
    <!-- Generator: Sketch 54 (76480) - https://sketchapp.com -->
    <title>Group 4</title>
    <desc>Created with Sketch.</desc>
    <defs>
        <circle id="path-1" cx="55.5" cy="55.5" r="55.5"></circle>
        <filter x="-6.3%" y="-4.5%" width="112.6%" height="112.6%" filterUnits="objectBoundingBox" id="filter-2">
            <feOffset dx="0" dy="2" in="SourceAlpha" result="shadowOffsetOuter1"></feOffset>
            <feGaussianBlur stdDeviation="2" in="shadowOffsetOuter1" result="shadowBlurOuter1"></feGaussianBlur>
            <feColorMatrix values="0 0 0 0 0   0 0 0 0 0   0 0 0 0 0  0 0 0 0.5 0" type="matrix" in="shadowBlurOuter1"></feColorMatrix>
        </filter>
        <path d="M47.9166667,23.125 L47.9166667,25 C47.9166667,37.7083333 37.7083333,47.9166667 25,47.9166667 C25,47.9166667 25,47.9166667 25,47.9166667 C12.2916667,47.9166667 2.08333333,37.7083333 2.08333333,25 C2.08333333,12.2916667 12.2916667,2.08333333 25,2.08333333 C25,2.08333333 25,2.08333333 25,2.08333333 C28.125,2.08333333 31.4583333,2.70833333 34.375,4.16666667 C35.4166667,4.58333333 35.8333333,5.83333333 35.4166667,6.875 C35,7.91666667 33.75,8.33333333 32.7083333,7.91666667 C30.2083333,6.875 27.7083333,6.25 25,6.25 C25,6.25 25,6.25 25,6.25 C14.5833333,6.25 6.25,14.5833333 6.25,25 C6.25,35.4166667 14.5833333,43.75 25,43.75 C25,43.75 25,43.75 25,43.75 C35.4166667,43.75 43.75,35.4166667 43.75,25 L43.75,23.125 C43.75,21.875 44.5833333,21.0416667 45.8333333,21.0416667 C47.0833333,21.0416667 47.9166667,21.875 47.9166667,23.125 Z M49.375,4.79166667 C48.5416667,3.95833333 47.2916667,3.95833333 46.4583333,4.79166667 L25,26.25 L20.2083333,21.4583333 C19.375,20.625 18.125,20.625 17.2916667,21.4583333 C16.4583333,22.2916667 16.4583333,23.5416667 17.2916667,24.375 L23.5416667,30.625 C23.9583333,31.0416667 24.5833333,31.25 25,31.25 C25.4166667,31.25 26.0416667,31.0416667 26.4583333,30.625 L49.375,7.70833333 C50.2083333,6.875 50.2083333,5.625 49.375,4.79166667 Z" id="path-3"></path>
    </defs>
    <g id="Home" stroke="none" stroke-width="1" fill="none" fill-rule="evenodd">
        <g id="Desktop-HD" transform="translate(-132.000000, -956.000000)">
            <g id="Group-4" transform="translate(136.000000, 958.000000)">
                <g id="Oval">
                    <use fill="black" fill-opacity="1" filter="url(#filter-2)" xlink:href="#path-1"></use>
                    <use fill="#0D1C54" fill-rule="evenodd" xlink:href="#path-1"></use>
                </g>
                <g id="icon-/-check-circle" transform="translate(31.000000, 31.000000)">
                    <mask id="mask-4" fill="white">
                        <use xlink:href="#path-3"></use>
                    </mask>
                    <use id="Mask" fill="#000000" fill-rule="nonzero" xlink:href="#path-3"></use>
                    <g id="color-/-white" mask="url(#mask-4)" fill="#FFFFFF" fill-rule="evenodd">
                        <rect id="Shape" x="0" y="0" width="50" height="50"></rect>
                    </g>
                </g>
            </g>
        </g>
    </g>
</svg>